<?xml version="1.0" encoding="UTF-8" standalone="no"?>
<svg
   xmlns:dc="http://purl.org/dc/elements/1.1/"
   xmlns:cc="http://creativecommons.org/ns#"
   xmlns:rdf="http://www.w3.org/1999/02/22-rdf-syntax-ns#"
   xmlns:svg="http://www.w3.org/2000/svg"
   xmlns="http://www.w3.org/2000/svg"
   xmlns:sodipodi="http://sodipodi.sourceforge.net/DTD/sodipodi-0.dtd"
   xmlns:inkscape="http://www.inkscape.org/namespaces/inkscape"
   width="64"
   height="64"
   version="1.1"
   id="svg12"
   sodipodi:docname="folder-copy.svg"
   inkscape:version="0.92.5 (2060ec1f9f, 2020-04-08)">
  <metadata
     id="metadata18">
    <rdf:RDF>
      <cc:Work
         rdf:about="">
        <dc:format>image/svg+xml</dc:format>
        <dc:type
           rdf:resource="http://purl.org/dc/dcmitype/StillImage" />
        <dc:title></dc:title>
      </cc:Work>
    </rdf:RDF>
  </metadata>
  <defs
     id="defs16" />
    <style
       id="current-color-scheme"
       type="text/css">
      .ColorScheme-Highlight {
        color:#ff0400;
      }
    </style>
  <path
     d="m 30,9 -5,5 H 10 c -2.77,0 -5,2.23 -5,5 v 25 h 40 c 2.77,0 5,-2.23 5,-5 V 14 C 50,11.23 47.77,9 45,9 Z"
     id="path2"
     inkscape:connector-curvature="0"
     class="ColorScheme-Highlight"
     style="fill:currentColor" />
  <path
     d="m 30,9 -5,5 H 10 c -2.77,0 -5,2.23 -5,5 v 25 h 40 c 2.77,0 5,-2.23 5,-5 V 14 C 50,11.23 47.77,9 45,9 Z"
     id="path4"
     inkscape:connector-curvature="0"
     style="opacity:0.5" />
  <path
     d="m 40,19 -5,5 H 20 c -2.77,0 -5,2.23 -5,5 v 25 h 40 c 2.77,0 5,-2.23 5,-5 V 24 c 0,-2.77 -2.23,-5 -5,-5 z"
     id="path8"
     inkscape:connector-curvature="0"
     class="ColorScheme-Highlight"
     style="fill:currentColor" />
</svg>
