<?xml version="1.0" encoding="UTF-8" standalone="no"?>
<svg
   xmlns:dc="http://purl.org/dc/elements/1.1/"
   xmlns:cc="http://creativecommons.org/ns#"
   xmlns:rdf="http://www.w3.org/1999/02/22-rdf-syntax-ns#"
   xmlns:svg="http://www.w3.org/2000/svg"
   xmlns="http://www.w3.org/2000/svg"
   xmlns:sodipodi="http://sodipodi.sourceforge.net/DTD/sodipodi-0.dtd"
   xmlns:inkscape="http://www.inkscape.org/namespaces/inkscape"
   viewBox="0 0 16 16"
   id="svg6"
   version="1.1"
   sodipodi:docname="gnome-fs-web.svg"
   inkscape:version="0.92.5 (2060ec1f9f, 2020-04-08)">
  <metadata
     id="metadata8">
    <rdf:RDF>
      <cc:Work
         rdf:about="">
        <dc:format>image/svg+xml</dc:format>
        <dc:type
           rdf:resource="http://purl.org/dc/dcmitype/StillImage" />
        <dc:title></dc:title>
      </cc:Work>
    </rdf:RDF>
  </metadata>
  <sodipodi:namedview
     pagecolor="#ffffff"
     bordercolor="#666666"
     borderopacity="1"
     objecttolerance="10"
     gridtolerance="10"
     guidetolerance="10"
     inkscape:pageopacity="0"
     inkscape:pageshadow="2"
     inkscape:window-width="1085"
     inkscape:window-height="480"
     id="namedview6"
     showgrid="false"
     inkscape:zoom="14.75"
     inkscape:cx="8"
     inkscape:cy="8"
     inkscape:window-x="0"
     inkscape:window-y="25"
     inkscape:window-maximized="0"
     inkscape:current-layer="svg6" />
  <defs
     id="defs3051">
    <style
       id="current-color-scheme"
       type="text/css">
      .ColorScheme-Text {
        color:#f9f9f9;
      }
    </style>
  </defs>
  <path
     d="M 8,2 A 5,5 0 0 0 3,7 5,5 0 0 0 7,11.895 V 13 H 3 v 1 H 13 V 13 H 9 V 11.898 A 5,5 0 0 0 13,7 5,5 0 0 0 8,2 Z m 0,1 a 4,4 0 0 1 3.459,2 H 7 V 3.13 A 4,4 0 0 1 8,3 Z M 6,3.541 V 5 H 4.541 A 4,4 0 0 1 6,3.541 Z M 4.133,6 H 6 V 8 H 4.13 A 4,4 0 0 1 4,7 4,4 0 0 1 4.133,6 Z M 7,6 h 4.87 A 4,4 0 0 1 12,7 4,4 0 0 1 11.867,8 H 7 Z M 4.541,9 H 6 v 1.459 A 4,4 0 0 1 4.541,9 Z M 7,9 h 4.459 A 4,4 0 0 1 8,11 4,4 0 0 1 7,10.867 Z"
     id="path814"
     stroke-miterlimit="4"
     inkscape:connector-curvature="0"
     class="ColorScheme-Text"
     style="fill:currentColor" />
 </svg>
