<?xml version="1.0" encoding="UTF-8" standalone="no"?>
<svg
   xmlns:dc="http://purl.org/dc/elements/1.1/"
   xmlns:cc="http://creativecommons.org/ns#"
   xmlns:rdf="http://www.w3.org/1999/02/22-rdf-syntax-ns#"
   xmlns:svg="http://www.w3.org/2000/svg"
   xmlns="http://www.w3.org/2000/svg"
   xmlns:sodipodi="http://sodipodi.sourceforge.net/DTD/sodipodi-0.dtd"
   xmlns:inkscape="http://www.inkscape.org/namespaces/inkscape"
   viewBox="0 0 22 22"
   id="svg6"
   version="1.1"
   sodipodi:docname="gnome-fs-web.svg"
   inkscape:version="0.92.5 (2060ec1f9f, 2020-04-08)">
  <metadata
     id="metadata8">
    <rdf:RDF>
      <cc:Work
         rdf:about="">
        <dc:format>image/svg+xml</dc:format>
        <dc:type
           rdf:resource="http://purl.org/dc/dcmitype/StillImage" />
        <dc:title></dc:title>
      </cc:Work>
    </rdf:RDF>
  </metadata>
  <sodipodi:namedview
     pagecolor="#ffffff"
     bordercolor="#666666"
     borderopacity="1"
     objecttolerance="10"
     gridtolerance="10"
     guidetolerance="10"
     inkscape:pageopacity="0"
     inkscape:pageshadow="2"
     inkscape:window-width="1085"
     inkscape:window-height="480"
     id="namedview6"
     showgrid="false"
     inkscape:zoom="10.727273"
     inkscape:cx="0.97881356"
     inkscape:cy="11"
     inkscape:window-x="0"
     inkscape:window-y="25"
     inkscape:window-maximized="0"
     inkscape:current-layer="svg6" />
  <defs
     id="defs3051">
    <style
       id="current-color-scheme"
       type="text/css">
      .ColorScheme-Text {
        color:#f9f9f9;
      }
    </style>
  </defs>
  <path
     d="m 11,3 a 6,6 0 0 0 -6,6 6,6 0 0 0 6,6 6,6 0 0 0 6,-6 6,6 0 0 0 -6,-6 z m 0,1 a 5,5 0 0 1 4.576,3 H 9 V 4.424 A 5,5 0 0 1 11,4 Z M 8,5.008 V 7 H 6.42 A 5,5 0 0 1 8,5.008 Z M 6.102,8 H 8 v 3 H 6.424 A 5,5 0 0 1 6,9 5,5 0 0 1 6.102,8 Z M 9,8 h 6.895 A 5,5 0 0 1 16,9 5,5 0 0 1 15.58,11 H 9 Z M 7.008,12 H 8 v 0.992 A 5,5 0 0 1 7.008,12 Z M 9,12 h 5.992 A 5,5 0 0 1 11,14 5,5 0 0 1 9,13.58 Z m 1,4 v 1 H 4 v 1 h 6 v 1 h 2 v -1 h 6 v -1 h -6 v -1 z"
     id="path1561"
     stroke-miterlimit="4"
     inkscape:connector-curvature="0"
     class="ColorScheme-Text"
     style="fill:currentColor" />
</svg>
